<mxfile host="app.diagrams.net" modified="2023-03-26T14:34:00.346Z" agent="Mozilla/5.0 (Windows NT 10.0; Win64; x64) AppleWebKit/537.36 (KHTML, like Gecko) Chrome/111.0.0.0 Safari/537.36" etag="6arto6SqlSdIswsjNfD8" version="21.1.1" type="github">
  <diagram id="C5RBs43oDa-KdzZeNtuy" name="Page-1">
    <mxGraphModel dx="1247" dy="664" grid="1" gridSize="10" guides="1" tooltips="1" connect="1" arrows="1" fold="1" page="1" pageScale="1" pageWidth="827" pageHeight="1169" math="0" shadow="0">
      <root>
        <mxCell id="WIyWlLk6GJQsqaUBKTNV-0" />
        <mxCell id="WIyWlLk6GJQsqaUBKTNV-1" parent="WIyWlLk6GJQsqaUBKTNV-0" />
        <mxCell id="WIyWlLk6GJQsqaUBKTNV-2" value="" style="rounded=0;html=1;jettySize=auto;orthogonalLoop=1;fontSize=11;endArrow=block;endFill=0;endSize=8;strokeWidth=1;shadow=0;labelBackgroundColor=none;edgeStyle=orthogonalEdgeStyle;" parent="WIyWlLk6GJQsqaUBKTNV-1" source="WIyWlLk6GJQsqaUBKTNV-3" edge="1">
          <mxGeometry relative="1" as="geometry">
            <mxPoint x="220" y="100" as="targetPoint" />
          </mxGeometry>
        </mxCell>
        <mxCell id="WIyWlLk6GJQsqaUBKTNV-3" value="Start" style="rounded=1;whiteSpace=wrap;html=1;fontSize=12;glass=0;strokeWidth=1;shadow=0;" parent="WIyWlLk6GJQsqaUBKTNV-1" vertex="1">
          <mxGeometry x="160" y="30" width="120" height="40" as="geometry" />
        </mxCell>
        <mxCell id="Muafu4TngwF8cdsGIjT_-0" value="Get executor V1 &amp;amp; V2&lt;br&gt;ETH balance" style="rounded=1;whiteSpace=wrap;html=1;fontSize=12;glass=0;strokeWidth=1;shadow=0;" vertex="1" parent="WIyWlLk6GJQsqaUBKTNV-1">
          <mxGeometry x="160" y="100" width="120" height="40" as="geometry" />
        </mxCell>
        <mxCell id="Muafu4TngwF8cdsGIjT_-2" value="Get Primary signer&lt;br&gt;ETH balance" style="rounded=1;whiteSpace=wrap;html=1;fontSize=12;glass=0;strokeWidth=1;shadow=0;" vertex="1" parent="WIyWlLk6GJQsqaUBKTNV-1">
          <mxGeometry x="160" y="170" width="120" height="40" as="geometry" />
        </mxCell>
        <mxCell id="Muafu4TngwF8cdsGIjT_-3" value="" style="rounded=0;html=1;jettySize=auto;orthogonalLoop=1;fontSize=11;endArrow=block;endFill=0;endSize=8;strokeWidth=1;shadow=0;labelBackgroundColor=none;edgeStyle=orthogonalEdgeStyle;" edge="1" parent="WIyWlLk6GJQsqaUBKTNV-1">
          <mxGeometry relative="1" as="geometry">
            <mxPoint x="219.5" y="140" as="sourcePoint" />
            <mxPoint x="219.5" y="170" as="targetPoint" />
          </mxGeometry>
        </mxCell>
        <mxCell id="Muafu4TngwF8cdsGIjT_-4" value="isSwap&lt;br&gt;Enabled?" style="rhombus;whiteSpace=wrap;html=1;" vertex="1" parent="WIyWlLk6GJQsqaUBKTNV-1">
          <mxGeometry x="180" y="277.5" width="80" height="80" as="geometry" />
        </mxCell>
        <mxCell id="Muafu4TngwF8cdsGIjT_-8" value="" style="rounded=0;html=1;jettySize=auto;orthogonalLoop=1;fontSize=11;endArrow=block;endFill=0;endSize=8;strokeWidth=1;shadow=0;labelBackgroundColor=none;edgeStyle=orthogonalEdgeStyle;entryX=0.5;entryY=0;entryDx=0;entryDy=0;" edge="1" parent="WIyWlLk6GJQsqaUBKTNV-1" target="Muafu4TngwF8cdsGIjT_-4">
          <mxGeometry relative="1" as="geometry">
            <mxPoint x="219.77" y="210" as="sourcePoint" />
            <mxPoint x="220" y="270" as="targetPoint" />
            <Array as="points" />
          </mxGeometry>
        </mxCell>
        <mxCell id="Muafu4TngwF8cdsGIjT_-13" value="Is enough&amp;nbsp;&lt;br&gt;DAI to&amp;nbsp;&lt;br&gt;swap?" style="rhombus;whiteSpace=wrap;html=1;" vertex="1" parent="WIyWlLk6GJQsqaUBKTNV-1">
          <mxGeometry x="310" y="272.5" width="100" height="90" as="geometry" />
        </mxCell>
        <mxCell id="Muafu4TngwF8cdsGIjT_-14" value="primary&lt;br&gt;signer&lt;br&gt;underfunded&lt;br&gt;?" style="rhombus;whiteSpace=wrap;html=1;" vertex="1" parent="WIyWlLk6GJQsqaUBKTNV-1">
          <mxGeometry x="460" y="270" width="100" height="95" as="geometry" />
        </mxCell>
        <mxCell id="Muafu4TngwF8cdsGIjT_-19" value="" style="rounded=0;html=1;jettySize=auto;orthogonalLoop=1;fontSize=11;endArrow=block;endFill=0;endSize=8;strokeWidth=1;shadow=0;labelBackgroundColor=none;edgeStyle=orthogonalEdgeStyle;" edge="1" parent="WIyWlLk6GJQsqaUBKTNV-1">
          <mxGeometry relative="1" as="geometry">
            <mxPoint x="219.58" y="357.5" as="sourcePoint" />
            <mxPoint x="219.58" y="387.5" as="targetPoint" />
          </mxGeometry>
        </mxCell>
        <mxCell id="Muafu4TngwF8cdsGIjT_-20" value="" style="rounded=0;html=1;jettySize=auto;orthogonalLoop=1;fontSize=11;endArrow=block;endFill=0;endSize=8;strokeWidth=1;shadow=0;labelBackgroundColor=none;edgeStyle=orthogonalEdgeStyle;" edge="1" parent="WIyWlLk6GJQsqaUBKTNV-1">
          <mxGeometry relative="1" as="geometry">
            <mxPoint x="359.58000000000004" y="362.5" as="sourcePoint" />
            <mxPoint x="360" y="387.5" as="targetPoint" />
          </mxGeometry>
        </mxCell>
        <mxCell id="Muafu4TngwF8cdsGIjT_-21" value="" style="rounded=0;html=1;jettySize=auto;orthogonalLoop=1;fontSize=11;endArrow=block;endFill=0;endSize=8;strokeWidth=1;shadow=0;labelBackgroundColor=none;edgeStyle=orthogonalEdgeStyle;" edge="1" parent="WIyWlLk6GJQsqaUBKTNV-1">
          <mxGeometry relative="1" as="geometry">
            <mxPoint x="509.58000000000004" y="362.5" as="sourcePoint" />
            <mxPoint x="510" y="387.5" as="targetPoint" />
          </mxGeometry>
        </mxCell>
        <mxCell id="Muafu4TngwF8cdsGIjT_-22" value="" style="endArrow=none;html=1;rounded=0;" edge="1" parent="WIyWlLk6GJQsqaUBKTNV-1">
          <mxGeometry width="50" height="50" relative="1" as="geometry">
            <mxPoint x="220" y="387.5" as="sourcePoint" />
            <mxPoint x="510" y="387.5" as="targetPoint" />
          </mxGeometry>
        </mxCell>
        <mxCell id="Muafu4TngwF8cdsGIjT_-23" value="" style="rounded=0;html=1;jettySize=auto;orthogonalLoop=1;fontSize=11;endArrow=block;endFill=0;endSize=8;strokeWidth=1;shadow=0;labelBackgroundColor=none;edgeStyle=orthogonalEdgeStyle;entryX=0.5;entryY=0;entryDx=0;entryDy=0;" edge="1" parent="WIyWlLk6GJQsqaUBKTNV-1" target="Muafu4TngwF8cdsGIjT_-27">
          <mxGeometry relative="1" as="geometry">
            <mxPoint x="359.58000000000004" y="387.5" as="sourcePoint" />
            <mxPoint x="360" y="412.5" as="targetPoint" />
          </mxGeometry>
        </mxCell>
        <mxCell id="Muafu4TngwF8cdsGIjT_-24" value="No" style="text;html=1;strokeColor=none;fillColor=none;align=center;verticalAlign=middle;whiteSpace=wrap;rounded=0;" vertex="1" parent="WIyWlLk6GJQsqaUBKTNV-1">
          <mxGeometry x="300" y="357.5" width="60" height="30" as="geometry" />
        </mxCell>
        <mxCell id="Muafu4TngwF8cdsGIjT_-25" value="No" style="text;html=1;strokeColor=none;fillColor=none;align=center;verticalAlign=middle;whiteSpace=wrap;rounded=0;" vertex="1" parent="WIyWlLk6GJQsqaUBKTNV-1">
          <mxGeometry x="150" y="357.5" width="60" height="30" as="geometry" />
        </mxCell>
        <mxCell id="Muafu4TngwF8cdsGIjT_-26" value="No" style="text;html=1;strokeColor=none;fillColor=none;align=center;verticalAlign=middle;whiteSpace=wrap;rounded=0;" vertex="1" parent="WIyWlLk6GJQsqaUBKTNV-1">
          <mxGeometry x="450" y="357.5" width="60" height="30" as="geometry" />
        </mxCell>
        <mxCell id="Muafu4TngwF8cdsGIjT_-27" value="end block processing" style="rounded=1;whiteSpace=wrap;html=1;fontSize=12;glass=0;strokeWidth=1;shadow=0;" vertex="1" parent="WIyWlLk6GJQsqaUBKTNV-1">
          <mxGeometry x="300" y="417.5" width="120" height="40" as="geometry" />
        </mxCell>
        <mxCell id="Muafu4TngwF8cdsGIjT_-29" value="" style="rounded=0;html=1;jettySize=auto;orthogonalLoop=1;fontSize=11;endArrow=block;endFill=0;endSize=8;strokeWidth=1;shadow=0;labelBackgroundColor=none;edgeStyle=orthogonalEdgeStyle;exitX=1;exitY=0.5;exitDx=0;exitDy=0;" edge="1" parent="WIyWlLk6GJQsqaUBKTNV-1" source="Muafu4TngwF8cdsGIjT_-4" target="Muafu4TngwF8cdsGIjT_-13">
          <mxGeometry relative="1" as="geometry">
            <mxPoint x="229.58" y="367.5" as="sourcePoint" />
            <mxPoint x="229.58" y="397.5" as="targetPoint" />
          </mxGeometry>
        </mxCell>
        <mxCell id="Muafu4TngwF8cdsGIjT_-30" value="" style="rounded=0;html=1;jettySize=auto;orthogonalLoop=1;fontSize=11;endArrow=block;endFill=0;endSize=8;strokeWidth=1;shadow=0;labelBackgroundColor=none;edgeStyle=orthogonalEdgeStyle;exitX=1;exitY=0.5;exitDx=0;exitDy=0;" edge="1" parent="WIyWlLk6GJQsqaUBKTNV-1">
          <mxGeometry relative="1" as="geometry">
            <mxPoint x="410" y="317.08" as="sourcePoint" />
            <mxPoint x="460" y="317.08" as="targetPoint" />
          </mxGeometry>
        </mxCell>
        <mxCell id="Muafu4TngwF8cdsGIjT_-32" value="Yes" style="text;html=1;strokeColor=none;fillColor=none;align=center;verticalAlign=middle;whiteSpace=wrap;rounded=0;" vertex="1" parent="WIyWlLk6GJQsqaUBKTNV-1">
          <mxGeometry x="250" y="287.5" width="60" height="30" as="geometry" />
        </mxCell>
        <mxCell id="Muafu4TngwF8cdsGIjT_-33" value="Yes" style="text;html=1;strokeColor=none;fillColor=none;align=center;verticalAlign=middle;whiteSpace=wrap;rounded=0;" vertex="1" parent="WIyWlLk6GJQsqaUBKTNV-1">
          <mxGeometry x="400" y="287.5" width="60" height="30" as="geometry" />
        </mxCell>
        <mxCell id="Muafu4TngwF8cdsGIjT_-36" value="" style="rounded=0;html=1;jettySize=auto;orthogonalLoop=1;fontSize=11;endArrow=block;endFill=0;endSize=8;strokeWidth=1;shadow=0;labelBackgroundColor=none;edgeStyle=orthogonalEdgeStyle;entryX=0.5;entryY=0;entryDx=0;entryDy=0;" edge="1" parent="WIyWlLk6GJQsqaUBKTNV-1" target="Muafu4TngwF8cdsGIjT_-39">
          <mxGeometry relative="1" as="geometry">
            <mxPoint x="560" y="317.5" as="sourcePoint" />
            <mxPoint x="590" y="467.5" as="targetPoint" />
            <Array as="points">
              <mxPoint x="590" y="317" />
            </Array>
          </mxGeometry>
        </mxCell>
        <mxCell id="Muafu4TngwF8cdsGIjT_-44" value="Executor coverage swap" style="swimlane;whiteSpace=wrap;html=1;" vertex="1" parent="WIyWlLk6GJQsqaUBKTNV-1">
          <mxGeometry x="130" y="230" width="620" height="420" as="geometry" />
        </mxCell>
        <mxCell id="Muafu4TngwF8cdsGIjT_-45" value="Send&lt;br&gt;transaction" style="rounded=1;whiteSpace=wrap;html=1;fontSize=12;glass=0;strokeWidth=1;shadow=0;" vertex="1" parent="Muafu4TngwF8cdsGIjT_-44">
          <mxGeometry x="400" y="250" width="120" height="40" as="geometry" />
        </mxCell>
        <mxCell id="Muafu4TngwF8cdsGIjT_-46" value="Mine&lt;br&gt;transaction" style="rounded=1;whiteSpace=wrap;html=1;fontSize=12;glass=0;strokeWidth=1;shadow=0;" vertex="1" parent="Muafu4TngwF8cdsGIjT_-44">
          <mxGeometry x="400" y="310" width="120" height="40" as="geometry" />
        </mxCell>
        <mxCell id="Muafu4TngwF8cdsGIjT_-47" value="" style="rounded=0;html=1;jettySize=auto;orthogonalLoop=1;fontSize=11;endArrow=block;endFill=0;endSize=8;strokeWidth=1;shadow=0;labelBackgroundColor=none;edgeStyle=orthogonalEdgeStyle;entryX=0.41;entryY=-0.008;entryDx=0;entryDy=0;entryPerimeter=0;" edge="1" parent="Muafu4TngwF8cdsGIjT_-44" target="Muafu4TngwF8cdsGIjT_-45">
          <mxGeometry relative="1" as="geometry">
            <mxPoint x="460" y="210" as="sourcePoint" />
            <mxPoint x="460" y="240" as="targetPoint" />
            <Array as="points">
              <mxPoint x="449" y="210" />
            </Array>
          </mxGeometry>
        </mxCell>
        <mxCell id="Muafu4TngwF8cdsGIjT_-50" value="" style="rounded=0;html=1;jettySize=auto;orthogonalLoop=1;fontSize=11;endArrow=block;endFill=0;endSize=8;strokeWidth=1;shadow=0;labelBackgroundColor=none;edgeStyle=orthogonalEdgeStyle;" edge="1" parent="Muafu4TngwF8cdsGIjT_-44">
          <mxGeometry relative="1" as="geometry">
            <mxPoint x="450" y="290" as="sourcePoint" />
            <mxPoint x="450" y="310" as="targetPoint" />
          </mxGeometry>
        </mxCell>
        <mxCell id="Muafu4TngwF8cdsGIjT_-34" value="Yes" style="text;html=1;strokeColor=none;fillColor=none;align=center;verticalAlign=middle;whiteSpace=wrap;rounded=0;" vertex="1" parent="Muafu4TngwF8cdsGIjT_-44">
          <mxGeometry x="420" y="60" width="60" height="30" as="geometry" />
        </mxCell>
        <mxCell id="Muafu4TngwF8cdsGIjT_-39" value="Build 1inch&lt;br&gt;payload" style="rounded=1;whiteSpace=wrap;html=1;fontSize=12;glass=0;strokeWidth=1;shadow=0;" vertex="1" parent="Muafu4TngwF8cdsGIjT_-44">
          <mxGeometry x="400" y="180" width="120" height="40" as="geometry" />
        </mxCell>
        <mxCell id="Muafu4TngwF8cdsGIjT_-52" value="send eth&lt;br&gt;to primary signer" style="rounded=1;whiteSpace=wrap;html=1;fontSize=12;glass=0;strokeWidth=1;shadow=0;" vertex="1" parent="Muafu4TngwF8cdsGIjT_-44">
          <mxGeometry x="400" y="370" width="120" height="40" as="geometry" />
        </mxCell>
        <mxCell id="Muafu4TngwF8cdsGIjT_-53" value="" style="rounded=0;html=1;jettySize=auto;orthogonalLoop=1;fontSize=11;endArrow=block;endFill=0;endSize=8;strokeWidth=1;shadow=0;labelBackgroundColor=none;edgeStyle=orthogonalEdgeStyle;" edge="1" parent="Muafu4TngwF8cdsGIjT_-44">
          <mxGeometry relative="1" as="geometry">
            <mxPoint x="449.40999999999997" y="350" as="sourcePoint" />
            <mxPoint x="449.40999999999997" y="370" as="targetPoint" />
          </mxGeometry>
        </mxCell>
        <mxCell id="Muafu4TngwF8cdsGIjT_-54" value="Rebalance Executors" style="swimlane;whiteSpace=wrap;html=1;" vertex="1" parent="WIyWlLk6GJQsqaUBKTNV-1">
          <mxGeometry x="130" y="669.94" width="620" height="240" as="geometry">
            <mxRectangle x="130" y="669.94" width="160" height="30" as="alternateBounds" />
          </mxGeometry>
        </mxCell>
        <mxCell id="Muafu4TngwF8cdsGIjT_-56" value="is&lt;br&gt;Rebalance&lt;br&gt;Enabled?" style="rhombus;whiteSpace=wrap;html=1;" vertex="1" parent="Muafu4TngwF8cdsGIjT_-54">
          <mxGeometry x="30" y="45" width="80" height="80" as="geometry" />
        </mxCell>
        <mxCell id="Muafu4TngwF8cdsGIjT_-57" value="Are&lt;br&gt;executors&lt;br&gt;underfunded&lt;br&gt;?" style="rhombus;whiteSpace=wrap;html=1;" vertex="1" parent="Muafu4TngwF8cdsGIjT_-54">
          <mxGeometry x="160" y="40" width="100" height="90" as="geometry" />
        </mxCell>
        <mxCell id="Muafu4TngwF8cdsGIjT_-58" value="" style="rounded=0;html=1;jettySize=auto;orthogonalLoop=1;fontSize=11;endArrow=block;endFill=0;endSize=8;strokeWidth=1;shadow=0;labelBackgroundColor=none;edgeStyle=orthogonalEdgeStyle;" edge="1" parent="Muafu4TngwF8cdsGIjT_-54">
          <mxGeometry relative="1" as="geometry">
            <mxPoint x="69.58000000000001" y="125" as="sourcePoint" />
            <mxPoint x="69.58000000000001" y="155" as="targetPoint" />
          </mxGeometry>
        </mxCell>
        <mxCell id="Muafu4TngwF8cdsGIjT_-59" value="" style="rounded=0;html=1;jettySize=auto;orthogonalLoop=1;fontSize=11;endArrow=block;endFill=0;endSize=8;strokeWidth=1;shadow=0;labelBackgroundColor=none;edgeStyle=orthogonalEdgeStyle;" edge="1" parent="Muafu4TngwF8cdsGIjT_-54">
          <mxGeometry relative="1" as="geometry">
            <mxPoint x="209.58000000000004" y="130" as="sourcePoint" />
            <mxPoint x="210" y="155" as="targetPoint" />
          </mxGeometry>
        </mxCell>
        <mxCell id="Muafu4TngwF8cdsGIjT_-61" value="" style="endArrow=none;html=1;rounded=0;entryX=1;entryY=1;entryDx=0;entryDy=0;" edge="1" parent="Muafu4TngwF8cdsGIjT_-54" target="Muafu4TngwF8cdsGIjT_-63">
          <mxGeometry width="50" height="50" relative="1" as="geometry">
            <mxPoint x="70" y="155" as="sourcePoint" />
            <mxPoint x="360" y="155" as="targetPoint" />
          </mxGeometry>
        </mxCell>
        <mxCell id="Muafu4TngwF8cdsGIjT_-62" value="" style="rounded=0;html=1;jettySize=auto;orthogonalLoop=1;fontSize=11;endArrow=block;endFill=0;endSize=8;strokeWidth=1;shadow=0;labelBackgroundColor=none;edgeStyle=orthogonalEdgeStyle;entryX=0.5;entryY=0;entryDx=0;entryDy=0;" edge="1" parent="Muafu4TngwF8cdsGIjT_-54" target="Muafu4TngwF8cdsGIjT_-65">
          <mxGeometry relative="1" as="geometry">
            <mxPoint x="209.58000000000004" y="155" as="sourcePoint" />
            <mxPoint x="210" y="180" as="targetPoint" />
          </mxGeometry>
        </mxCell>
        <mxCell id="Muafu4TngwF8cdsGIjT_-63" value="No" style="text;html=1;strokeColor=none;fillColor=none;align=center;verticalAlign=middle;whiteSpace=wrap;rounded=0;" vertex="1" parent="Muafu4TngwF8cdsGIjT_-54">
          <mxGeometry x="150" y="125" width="60" height="30" as="geometry" />
        </mxCell>
        <mxCell id="Muafu4TngwF8cdsGIjT_-65" value="end block processing" style="rounded=1;whiteSpace=wrap;html=1;fontSize=12;glass=0;strokeWidth=1;shadow=0;" vertex="1" parent="Muafu4TngwF8cdsGIjT_-54">
          <mxGeometry x="150" y="185" width="120" height="40" as="geometry" />
        </mxCell>
        <mxCell id="Muafu4TngwF8cdsGIjT_-66" value="" style="rounded=0;html=1;jettySize=auto;orthogonalLoop=1;fontSize=11;endArrow=block;endFill=0;endSize=8;strokeWidth=1;shadow=0;labelBackgroundColor=none;edgeStyle=orthogonalEdgeStyle;exitX=1;exitY=0.5;exitDx=0;exitDy=0;" edge="1" parent="Muafu4TngwF8cdsGIjT_-54" source="Muafu4TngwF8cdsGIjT_-56" target="Muafu4TngwF8cdsGIjT_-57">
          <mxGeometry relative="1" as="geometry">
            <mxPoint x="79.58000000000001" y="135" as="sourcePoint" />
            <mxPoint x="79.58000000000001" y="165" as="targetPoint" />
          </mxGeometry>
        </mxCell>
        <mxCell id="Muafu4TngwF8cdsGIjT_-67" value="" style="rounded=0;html=1;jettySize=auto;orthogonalLoop=1;fontSize=11;endArrow=block;endFill=0;endSize=8;strokeWidth=1;shadow=0;labelBackgroundColor=none;edgeStyle=orthogonalEdgeStyle;exitX=1;exitY=0.5;exitDx=0;exitDy=0;" edge="1" parent="Muafu4TngwF8cdsGIjT_-54">
          <mxGeometry relative="1" as="geometry">
            <mxPoint x="260" y="84.57999999999993" as="sourcePoint" />
            <mxPoint x="310" y="84.57999999999993" as="targetPoint" />
          </mxGeometry>
        </mxCell>
        <mxCell id="Muafu4TngwF8cdsGIjT_-68" value="Yes" style="text;html=1;strokeColor=none;fillColor=none;align=center;verticalAlign=middle;whiteSpace=wrap;rounded=0;" vertex="1" parent="Muafu4TngwF8cdsGIjT_-54">
          <mxGeometry x="100" y="55" width="60" height="30" as="geometry" />
        </mxCell>
        <mxCell id="Muafu4TngwF8cdsGIjT_-69" value="Yes" style="text;html=1;strokeColor=none;fillColor=none;align=center;verticalAlign=middle;whiteSpace=wrap;rounded=0;" vertex="1" parent="Muafu4TngwF8cdsGIjT_-54">
          <mxGeometry x="250" y="55" width="60" height="30" as="geometry" />
        </mxCell>
        <mxCell id="Muafu4TngwF8cdsGIjT_-84" value="Send ETH from&lt;br&gt;primary signer&lt;br&gt;to executors" style="rounded=1;whiteSpace=wrap;html=1;fontSize=12;glass=0;strokeWidth=1;shadow=0;" vertex="1" parent="Muafu4TngwF8cdsGIjT_-54">
          <mxGeometry x="310" y="62.5" width="120" height="45" as="geometry" />
        </mxCell>
        <mxCell id="Muafu4TngwF8cdsGIjT_-87" value="" style="rounded=0;html=1;jettySize=auto;orthogonalLoop=1;fontSize=11;endArrow=block;endFill=0;endSize=8;strokeWidth=1;shadow=0;labelBackgroundColor=none;edgeStyle=orthogonalEdgeStyle;" edge="1" parent="Muafu4TngwF8cdsGIjT_-54">
          <mxGeometry relative="1" as="geometry">
            <mxPoint x="310" y="240" as="sourcePoint" />
            <mxPoint x="300" y="259.94000000000005" as="targetPoint" />
            <Array as="points">
              <mxPoint x="299" y="240" />
            </Array>
          </mxGeometry>
        </mxCell>
        <mxCell id="Muafu4TngwF8cdsGIjT_-55" value="" style="rounded=0;html=1;jettySize=auto;orthogonalLoop=1;fontSize=11;endArrow=block;endFill=0;endSize=8;strokeWidth=1;shadow=0;labelBackgroundColor=none;edgeStyle=orthogonalEdgeStyle;" edge="1" parent="WIyWlLk6GJQsqaUBKTNV-1">
          <mxGeometry relative="1" as="geometry">
            <mxPoint x="450" y="650" as="sourcePoint" />
            <mxPoint x="440" y="669.94" as="targetPoint" />
            <Array as="points">
              <mxPoint x="439" y="650" />
            </Array>
          </mxGeometry>
        </mxCell>
        <mxCell id="Muafu4TngwF8cdsGIjT_-85" value="Rebalance Signers" style="swimlane;whiteSpace=wrap;html=1;" vertex="1" parent="WIyWlLk6GJQsqaUBKTNV-1">
          <mxGeometry x="130" y="930" width="620" height="230" as="geometry" />
        </mxCell>
        <mxCell id="Muafu4TngwF8cdsGIjT_-89" value="Find low balance&lt;br&gt;signers" style="rounded=1;whiteSpace=wrap;html=1;" vertex="1" parent="Muafu4TngwF8cdsGIjT_-85">
          <mxGeometry x="30" y="40" width="120" height="30" as="geometry" />
        </mxCell>
        <mxCell id="Muafu4TngwF8cdsGIjT_-92" value="Calculate primary signer surplus" style="rounded=1;whiteSpace=wrap;html=1;" vertex="1" parent="Muafu4TngwF8cdsGIjT_-85">
          <mxGeometry x="30" y="90" width="120" height="40" as="geometry" />
        </mxCell>
        <mxCell id="Muafu4TngwF8cdsGIjT_-93" value="Top up low balance&lt;br&gt;signers if possible" style="rounded=1;whiteSpace=wrap;html=1;" vertex="1" parent="Muafu4TngwF8cdsGIjT_-85">
          <mxGeometry x="30" y="150" width="120" height="30" as="geometry" />
        </mxCell>
        <mxCell id="Muafu4TngwF8cdsGIjT_-94" value="" style="endArrow=classic;html=1;rounded=0;exitX=0.42;exitY=1.07;exitDx=0;exitDy=0;exitPerimeter=0;entryX=0.427;entryY=0.041;entryDx=0;entryDy=0;entryPerimeter=0;" edge="1" parent="Muafu4TngwF8cdsGIjT_-85" source="Muafu4TngwF8cdsGIjT_-92" target="Muafu4TngwF8cdsGIjT_-93">
          <mxGeometry width="50" height="50" relative="1" as="geometry">
            <mxPoint x="100" y="80" as="sourcePoint" />
            <mxPoint x="100" y="110" as="targetPoint" />
          </mxGeometry>
        </mxCell>
        <mxCell id="Muafu4TngwF8cdsGIjT_-96" value="" style="endArrow=classic;html=1;rounded=0;exitX=0.449;exitY=1.07;exitDx=0;exitDy=0;exitPerimeter=0;entryX=0.449;entryY=0.03;entryDx=0;entryDy=0;entryPerimeter=0;" edge="1" parent="Muafu4TngwF8cdsGIjT_-85" source="Muafu4TngwF8cdsGIjT_-89" target="Muafu4TngwF8cdsGIjT_-92">
          <mxGeometry width="50" height="50" relative="1" as="geometry">
            <mxPoint x="130" y="30" as="sourcePoint" />
            <mxPoint x="180" y="-20" as="targetPoint" />
          </mxGeometry>
        </mxCell>
        <mxCell id="Muafu4TngwF8cdsGIjT_-98" value="Identify signers with surplus" style="rounded=1;whiteSpace=wrap;html=1;" vertex="1" parent="Muafu4TngwF8cdsGIjT_-85">
          <mxGeometry x="180" y="150" width="120" height="30" as="geometry" />
        </mxCell>
        <mxCell id="Muafu4TngwF8cdsGIjT_-99" value="Top up low balance&lt;br&gt;signers if possible" style="rounded=1;whiteSpace=wrap;html=1;" vertex="1" parent="Muafu4TngwF8cdsGIjT_-85">
          <mxGeometry x="330" y="150" width="120" height="30" as="geometry" />
        </mxCell>
        <mxCell id="Muafu4TngwF8cdsGIjT_-100" value="" style="endArrow=classic;html=1;rounded=0;exitX=1;exitY=0.5;exitDx=0;exitDy=0;" edge="1" parent="Muafu4TngwF8cdsGIjT_-85">
          <mxGeometry width="50" height="50" relative="1" as="geometry">
            <mxPoint x="300" y="164.56999999999994" as="sourcePoint" />
            <mxPoint x="330" y="164.56999999999994" as="targetPoint" />
          </mxGeometry>
        </mxCell>
        <mxCell id="Muafu4TngwF8cdsGIjT_-88" value="" style="rounded=1;whiteSpace=wrap;html=1;" vertex="1" parent="WIyWlLk6GJQsqaUBKTNV-1">
          <mxGeometry x="220" y="850" width="120" height="60" as="geometry" />
        </mxCell>
        <mxCell id="Muafu4TngwF8cdsGIjT_-97" value="" style="endArrow=classic;html=1;rounded=0;exitX=1;exitY=0.5;exitDx=0;exitDy=0;" edge="1" parent="WIyWlLk6GJQsqaUBKTNV-1" source="Muafu4TngwF8cdsGIjT_-93">
          <mxGeometry width="50" height="50" relative="1" as="geometry">
            <mxPoint x="260" y="960" as="sourcePoint" />
            <mxPoint x="310" y="1095" as="targetPoint" />
          </mxGeometry>
        </mxCell>
      </root>
    </mxGraphModel>
  </diagram>
</mxfile>
